<?xml version="1.0" encoding="utf-8"?>
<svg xmlns="http://www.w3.org/2000/svg" viewBox="352.743 117.975 799.9999 800" width="799.9999px" height="800px">
  <ellipse style="--darkreader-inline-fill: var(--darkreader-text-fb8d00, #ff9c1c); fill: rgb(251, 141, 0); stroke: rgba(0, 0, 0, 0);" cx="752.743" cy="517.975" ry="400" rx="400" data-darkreader-inline-fill="" transform="matrix(1, 0, 0, 1, -1.1368683772161603e-13, 0)"/>
  <path d="M -347.312 215.133 C -336.03 186.377 -393.904 345.214 -393.312 341.133 C -345.241 341.116 83.327 341.009 88.938 341.012 C 90.966 341.012 124.733 340.965 130.688 345.133 C 134.098 348.537 135.17 350.954 135.193 355.804 C 135.17 356.49 135.148 357.176 135.125 357.883 C 135.103 358.951 135.103 358.951 135.081 360.041 C 134.715 370.246 131.191 378.592 123.941 385.891 C 111.453 396.224 95.958 394.682 80.733 394.587 C 78.2 394.586 75.666 394.586 73.132 394.589 C 67.696 394.59 62.26 394.578 56.823 394.556 C 48.964 394.523 41.104 394.513 33.244 394.508 C 20.489 394.499 7.735 394.472 -5.02 394.435 C -17.403 394.398 -29.786 394.37 -42.169 394.353 C -42.934 394.352 -43.698 394.35 -44.486 394.349 C -48.322 394.344 -52.157 394.339 -55.993 394.334 C -87.766 394.293 -119.539 394.222 -151.312 394.133 C -151.515 395.365 -203.425 634.431 -203.312 638.133 C -166.25 638.202 62.669 638.474 66.197 638.49 C 108.015 638.655 152.492 631.191 184.688 602.133 C 185.536 601.415 186.384 600.697 187.258 599.957 C 193.514 594.571 198.618 588.629 203.688 582.133 C 204.282 581.428 204.876 580.723 205.488 579.996 C 227.281 553.694 236.594 517.311 233.465 483.744 C 231.067 464.818 222.731 447.149 208.688 434.133 C 208.162 433.613 207.636 433.094 207.094 432.559 C 198.351 424.316 187.58 419.124 176.398 415.035 C 171.784 413.326 171.784 413.326 170.688 411.133 C 172.016 410.765 172.016 410.765 173.371 410.391 C 197.354 403.153 220.432 386.514 233.688 365.133 C 234.333 364.096 234.979 363.06 235.645 361.992 C 243.947 348.085 249.442 334.195 251.688 318.133 C 251.818 317.352 251.948 316.57 252.082 315.766 C 255.436 292.777 250.584 270.455 237.703 251.16 C 225.246 235.04 208.083 225.986 188.813 220.445 C 188.118 220.243 187.424 220.04 186.708 219.831 C 172.744 216.009 158.885 215.839 144.528 215.854 C 142.4 215.849 140.272 215.843 138.144 215.837 C 132.327 215.821 -299.329 215.193 -347.312 215.133 Z" style="paint-order: stroke markers;" transform="matrix(1, 0, 0, 1, 748.3125, 96.8672103881836)"/>
  <path d="M0 0 C19.41936135 -0.09351427 38.8386769 -0.16401395 58.25821686 -0.20724869 C67.27541133 -0.22785849 76.29246574 -0.25594877 85.30957031 -0.30175781 C93.17049744 -0.3416741 101.03132311 -0.36744432 108.89234877 -0.37635398 C113.053284 -0.38156064 117.21392905 -0.39376497 121.37477112 -0.42292023 C125.294929 -0.45016523 129.21467845 -0.4584268 133.13492203 -0.45243073 C134.56998543 -0.45352692 136.00506316 -0.46142687 137.4400444 -0.4768219 C146.40699112 -0.5682659 153.08515318 -0.33662955 160.05859375 5.81640625 C160.51363281 6.39261719 160.96867188 6.96882812 161.4375 7.5625 C161.91058594 8.14128906 162.38367188 8.72007812 162.87109375 9.31640625 C166.75669747 15.11119934 165.75198849 25.00321077 164.50390625 31.63671875 C163.8022481 33.84476163 162.96645684 35.89492397 162 38 C161.50693359 39.19496094 161.50693359 39.19496094 161.00390625 40.4140625 C156.18348675 51.18911785 148.96927198 58.64134888 138 63 C137.25305783 63.34437544 136.50611567 63.68875088 135.73653889 64.04356194 C132.60905681 65.13663718 130.1659967 65.2462012 126.85600281 65.24050903 C125.62066299 65.24325836 124.38532318 65.24600769 123.11254883 65.24884033 C121.751708 65.24176303 120.39086817 65.23449342 119.0300293 65.22705078 C117.59088651 65.22648637 116.15174316 65.2268038 114.71260071 65.22793579 C110.81214413 65.22850916 106.91181078 65.21675747 103.01138282 65.20278788 C98.93279125 65.19027784 94.85419679 65.1891098 90.77558899 65.18673706 C83.05504741 65.1805231 75.33456254 65.1641134 67.61404592 65.14403808 C58.82329504 65.12167649 50.03254144 65.11068499 41.24176919 65.10064721 C23.16114733 65.07974711 5.08057822 65.04457274 -13 65 C-13.0590139 61.02379665 -13.0336395 57.28815167 -12.23730469 53.38842773 C-12.07002869 52.55323105 -11.90275269 51.71803436 -11.73040771 50.85752869 C-11.54609192 49.97513016 -11.36177612 49.09273163 -11.171875 48.18359375 C-10.98159729 47.25007584 -10.79131958 46.31655792 -10.59527588 45.35475159 C-10.19168386 43.38319614 -9.78469377 41.41233361 -9.37451172 39.44213867 C-8.75737889 36.47300117 -8.15325263 33.50143969 -7.55078125 30.52929688 C-7.15442809 28.60140151 -6.75731579 26.67366203 -6.359375 24.74609375 C-6.18315613 23.87786484 -6.00693726 23.00963593 -5.82537842 22.11509705 C-4.72984871 16.89421904 -3.39890222 11.7814906 -1.91998291 6.65516663 C-1.56028538 5.40557694 -1.20058784 4.15598726 -0.82999039 2.86853123 C-0.55609356 1.92191592 -0.28219673 0.97530062 0 0 Z " transform="matrix(1, 0, 0, 1, 700, 572.0000610351562)" style="fill: rgb(251, 141, 0); --darkreader-inline-fill: var(--darkreader-text-fb8d00, #ff9c1c);" data-darkreader-inline-fill=""/>
</svg>